<svg xmlns="http://www.w3.org/2000/svg" width="24" height="24" viewBox="0 0 24 24">
  <title>LinkedIn</title>
  <path fill="white" d="M20.447 20.452h-3.554v-5.569c0-1.328-.026-3.037-1.852-3.037-1.853 0-2.136 1.447-2.136 2.942v5.664H9.351V9h3.414v1.561h.049c.477-.9 1.637-1.852 3.37-1.852 3.602 0 4.268 2.372 4.268 5.457v6.286zM5.337 7.433a2.062 2.062 0 1 1 0-4.124 2.062 2.062 0 0 1 0 4.124zm1.777 13.019H3.56V9h3.554v11.452zM22.225 0H1.771C.792 0 0 .774 0 1.729v20.542C0 23.227.792 24 1.771 24h20.451C23.2 24 24 23.227 24 22.271V1.729C24 .774 23.2 0 22.225 0z"/>
</svg>
